SplineFontDB: 3.2
FontName: AnaVukic
FullName: AnaVukic
FamilyName: AnaVukic
Weight: Regular
Copyright: Copyright (c) 2025, AnaVukic
UComments: "2025-10-20: Created with FontForge (http://fontforge.org)"
Version: 001.000
ItalicAngle: 0
UnderlinePosition: -100
UnderlineWidth: 50
Ascent: 800
Descent: 200
InvalidEm: 0
LayerCount: 2
Layer: 0 0 "Back" 1
Layer: 1 0 "Fore" 0
XUID: [1021 864 -336062741 22813]
OS2Version: 0
OS2_WeightWidthSlopeOnly: 0
OS2_UseTypoMetrics: 1
CreationTime: 1760936950
ModificationTime: 1760973986
OS2TypoAscent: 0
OS2TypoAOffset: 1
OS2TypoDescent: 0
OS2TypoDOffset: 1
OS2TypoLinegap: 0
OS2WinAscent: 0
OS2WinAOffset: 1
OS2WinDescent: 0
OS2WinDOffset: 1
HheadAscent: 0
HheadAOffset: 1
HheadDescent: 0
HheadDOffset: 1
OS2Vendor: 'PfEd'
MarkAttachClasses: 1
DEI: 91125
Encoding: iso8859-2
UnicodeInterp: none
NameList: AGL For New Fonts
DisplaySize: -48
AntiAlias: 1
FitToEm: 0
WinInfo: 0 38 13
BeginPrivate: 0
EndPrivate
BeginChars: 256 22

StartChar: A
Encoding: 65 65 0
Width: 760
Flags: HW
LayerCount: 2
Fore
SplineSet
273 430 m 1
 276.221679688 378.348632812 362.166992188 416.553710938 387 454 c 1
 496.011715397 275.55459219 406.991730723 558.819904844 385 574 c 1
 313.564453125 544.68359375 302.875076244 589.482489999 283 594 c 1
 280.702796548 490.283854107 226.919686037 450.473211821 273 430 c 1
27 50 m 1
 -18.31640625 309.296875 172.351848197 252.136664978 171 701 c 1
 260.333007812 796.677734375 384.666992188 808.188476562 474 720 c 1
 498.973632812 573.879882812 603 359 613 52 c 1
 561.348632812 5.9716796875 541.599609375 -23.904296875 455 32 c 1
 489 113 378.514803124 174.582498644 391 288 c 1
 343.381835938 243.393554688 309.984375 245.190429688 273 286 c 1
 282.0078125 177.268554688 169 149 190 44 c 5
 145 107 180.161132812 -90.1220703125 27 50 c 1
EndSplineSet
EndChar

StartChar: a
Encoding: 97 97 1
Width: 1000
Flags: H
LayerCount: 2
Fore
SplineSet
566 194 m 1
 564.117699127 193.999996071 586.058024926 272.569958457 554 326 c 0
 518 386 410.817701367 376.565234958 422 328 c 0
 427.52136737 304.020448708 289.473656853 309.702570125 408 184 c 0
 486.831205162 100.395926578 511 195 566 194 c 1
366 0 m 5
 366 2 184.958186259 18.2750075633 200 286 c 4
 217.246599521 592.967351533 561.406701528 570.483246181 604 464 c 0
 656 334 589.155589796 526.422205102 618 512 c 0
 654 494 673.634765625 510.033203125 674 512 c 0
 692 609 815.043966056 109.351541566 748 24 c 0
 698.285593204 -39.2898306541 643.154296875 64.6904296875 660 104 c 0
 670.241210938 127.8984375 677.965980709 53.6246669778 604 18 c 0
 523.861328125 -20.59765625 354.809570312 5.7724609375 366 0 c 5
EndSplineSet
EndChar

StartChar: N
Encoding: 78 78 2
Width: 554
Flags: HW
LayerCount: 2
Fore
SplineSet
8 56 m 1
 -19.5771484375 283.845703125 78 126 18 702 c 1
 66 787.716796875 134 763.905273438 172 698 c 1
 164.018554688 870.303710938 569.076652347 75.0953919769 386 208 c 1
 407.361328125 374.96875 461.837890625 467.5078125 416 682 c 5
 474.034179688 775.9765625 507.614257812 734.516601562 548 678 c 5
 556 26 546.00390625 -124.916015625 500 80 c 1
 524 -26 453.426757812 -17.5537109375 396 50 c 1
 354.217773438 242.821289062 249.724609375 378.71875 142 514 c 1
 211.817382812 663.506835938 168.743164062 203.475585938 162 56 c 1
 89.873046875 -125.174804688 41.3369140625 201.051757812 8 56 c 1
EndSplineSet
EndChar

StartChar: n
Encoding: 110 110 3
Width: 584
Flags: HW
LayerCount: 2
Fore
SplineSet
27 595 m 1
 97.84375 530.682617188 104.796875 699.021484375 151 584 c 1
 154 570 l 1
 153 572 111.399414062 563.51171875 139 553 c 1
 186.356445312 617.071289062 406.245117188 629.198242188 483 532 c 1
 561.168945312 367.850585938 559.912109375 71.884765625 558 64 c 0
 517.45703125 -103.178710938 451.412109375 106.971679688 418 25 c 0
 414.063476562 15.341796875 332.998046875 301.357421875 388 403 c 1
 308.989257812 378.5390625 302.564453125 334.02734375 198 399 c 1
 225.823242188 247.696289062 228.885742188 130.978515625 206 49 c 5
 151 74 142.196289062 -72.3984375 62 57 c 5
 90.26953125 0.1396484375 -14.8212890625 178.274414062 27 595 c 1
EndSplineSet
EndChar

StartChar: V
Encoding: 86 86 4
Width: 580
Flags: HW
LayerCount: 2
Fore
SplineSet
186 84 m 5
 90.9892578125 298.294921875 -27.9912109375 570.001953125 10 670 c 5
 46.3583984375 725.6171875 99.8056640625 796.981445312 158 708 c 1
 197.533203125 674.022460938 316.275390625 316.170898438 296 272 c 0
 291.716796875 262.668945312 266.911132812 306.090820312 408 648 c 1
 399.79296875 686.455078125 570.409179688 797.72265625 576 670 c 0
 581.23046875 550.520507812 549.125976562 297.853515625 400 64 c 0
 381.16796875 34.46875 310.404296875 -22.5849609375 298 -4 c 1
 236.442382812 3.583984375 248 12 186 84 c 5
EndSplineSet
EndChar

StartChar: v
Encoding: 118 118 5
Width: 387
Flags: HW
LayerCount: 2
Fore
SplineSet
183 9 m 1
 70.2490234375 103.311523438 11 352 2 380 c 1
 -3.1220703125 468.240234375 119 388 102 353 c 1
 68 449 219 161 204 158 c 1
 204 158 284.408203125 374.194335938 285 375 c 0
 321.086914062 424.076171875 401.451171875 448.095703125 382 378 c 1
 386.8828125 329.59765625 311.833984375 71.73828125 241 13 c 1
 220 -6 216.965820312 -1.318359375 203 0 c 1
 183 9 l 1
EndSplineSet
EndChar

StartChar: U
Encoding: 85 85 6
Width: 682
Flags: HW
LayerCount: 2
Fore
SplineSet
66 174 m 5
 -10.7321097746 398.646668948 -10.8164206585 577.959030488 42 714 c 5
 77.44921875 799.97265625 97 498 149 674 c 1
 225 680 252.463867188 111.552734375 256 269 c 1
 237 310 303.327148438 65.6572265625 455 256 c 0
 552.977539062 378.958007812 519.80078125 574.709960938 496 674 c 1
 511.458007812 688.139648438 417.303710938 826.587890625 604 698 c 1
 598.737304688 705.30078125 780.771484375 434.915039062 592 108 c 1
 484 20 353.206054688 2.2236328125 352 4 c 1
 375.280273438 8.3232421875 119.737304688 30.7314453125 66 174 c 5
EndSplineSet
EndChar

StartChar: u
Encoding: 117 117 7
Width: 570
Flags: HW
LayerCount: 2
Fore
SplineSet
101 53 m 1
 63 67 20.02734375 277.43359375 32 404 c 5
 60.4560546875 548.63671875 99 409 150 406 c 1
 202 484 162.419921875 171.751476105 225 135 c 1
 506.41891581 -133.744008927 144.018319851 208.993969228 197 145 c 1
 414.619600555 23.2804999672 375.83659735 279.634923863 349 445 c 1
 357.811523438 480.329101562 438.154296875 498.360351562 410 429 c 1
 370.243164062 553.776367188 594.45703125 357.19921875 550 43 c 0
 537.412109375 -45.9619140625 447.283202983 31.5365691149 449 45 c 1
 457 115 l 1
 449 45 l 1
 408.645495577 -10.0941687669 215.702871383 -23.1405776055 101 53 c 1
EndSplineSet
EndChar

StartChar: K
Encoding: 75 75 8
Width: 486
Flags: HW
LayerCount: 2
Fore
SplineSet
208 40 m 5
 169.33203125 -24.8427734375 85.33203125 -7.306640625 36 64 c 5
 50.8583984375 150.958007812 148.181640625 321.495117188 6 666 c 5
 15.1298828125 707.309570312 115.421875 724.575195312 172 666 c 5
 216.114257812 593.057617188 210.849609375 492.862304688 208 394 c 5
 185.91796875 427.668945312 270.125 495.043945312 278 584 c 5
 359.700195312 783.358398438 523.801757812 702.065429688 392 508 c 4
 272.447265625 331.969726562 299.015625 309.671875 300 308 c 5
 367.813476562 239.33203125 448.625 182.576171875 456 60 c 5
 451.069335938 -1.19921875 426.452148438 -29.935546875 342 40 c 5
 343.068359375 -7.9140625 269.340820312 67.677734375 238 212 c 5
 243.706054688 139.419921875 229.634765625 86.0390625 208 40 c 5
EndSplineSet
EndChar

StartChar: k
Encoding: 107 107 9
Width: 408
Flags: HW
LayerCount: 2
Fore
SplineSet
36 23 m 1
 113 270 -8 441 8 638 c 1
 57.7470703125 600.109375 53.650390625 740.90234375 122 640 c 1
 149.9609375 520.379882812 151.42578125 400.232421875 152 278 c 1
 182.763671875 356.127929688 232 376 250 388 c 1
 338 421.33203125 357 340 318 311 c 1
 228.864257812 245.563476562 213.548828125 229.58203125 220 209 c 1
 278.756835938 216.736328125 332 102 374 52 c 1
 434 -20.4111328125 288 34.310546875 324 0 c 1
 287 -5 209.967773438 87.4111328125 166 144 c 1
 177.904296875 101.919921875 186.16796875 65.7978515625 178 29 c 1
 124.041992188 -15.056640625 82.677734375 -0.7470703125 36 23 c 1
EndSplineSet
EndChar

StartChar: I
Encoding: 73 73 10
Width: 176
Flags: HW
LayerCount: 2
Fore
SplineSet
10 2 m 1
 114 414 -60 424 36 618 c 1
 42 722 160 686 162 638 c 1
 56 498 228 144 132 8 c 1
 100.935546875 -25.7216796875 68 82 10 2 c 1
EndSplineSet
EndChar

StartChar: i
Encoding: 105 105 11
Width: 228
Flags: HW
LayerCount: 2
Fore
SplineSet
38 614 m 1
 38 614 99.474609375 648.561523438 124 582 c 0
 148.921875 514.364257812 83.783203125 450.052734375 91 513 c 0
 96.833984375 563.884765625 141.993164062 382.145507812 19 523 c 0
 -51.0546875 603.228515625 121.724609375 534.015625 38 614 c 1
88 40 m 1
 248 258 -54 400 86 424 c 1
 96 324 80.6669921875 405.33203125 118 464 c 1
 172.280273438 400.19140625 270 192 202 50 c 0
 199.408203125 44.587890625 164 -50 88 40 c 1
EndSplineSet
EndChar

StartChar: Cacute
Encoding: 198 262 12
Width: 526
Flags: HW
LayerCount: 2
Fore
SplineSet
346 710 m 5
 332.311523438 719.234375 424.107421875 803.268554688 454 784 c 4
 506.048828125 750.450195312 511.331054688 708.69921875 490 714 c 5
 490.07421875 713.956054688 400.223632812 764.25390625 410 696 c 4
 417.998046875 640.158203125 304.676757812 661.024414062 346 710 c 5
464 48 m 5
 573.362304688 114.873046875 474.440429688 138.014648438 408 98 c 5
 406.220703125 97.4208984375 530.196289062 194.541992188 284 176 c 4
 134.95703125 164.774414062 171.0859375 367.280273438 198 396 c 4
 315.44921875 521.333007812 436.662109375 398.250976562 450 380 c 5
 536.9375 237.290039062 541.997070312 531.866210938 454 534 c 4
 342.336914062 536.70703125 640.379882812 572.490234375 308 612 c 4
 32.7294921875 644.720703125 237.809570312 360.547851562 174 512 c 4
 121.16015625 637.416015625 -104.4765625 368.939453125 68 134 c 4
 232.837890625 -90.5341796875 469.966796875 36.9072265625 464 48 c 5
EndSplineSet
EndChar

StartChar: cacute
Encoding: 230 263 13
Width: 444
Flags: HW
LayerCount: 2
Fore
SplineSet
174 560 m 1
 166.001953125 573.333007812 171.334960938 571.333007812 222 590 c 1
 304.663085938 657.448242188 387.65234375 577.740234375 254 556 c 1
 271.739257812 569.731445312 344.499023438 632.771484375 224 540 c 0
 212.836914062 531.405273438 185.639648438 539.006835938 174 560 c 1
444 70 m 1
 444 70 123.008789062 -143.223632812 16 188 c 0
 -79.09375 482.34375 349.126953125 527.19140625 204 452 c 0
 106.283203125 401.372070312 248.552734375 538.432617188 388 406 c 0
 470.060546875 328.067382812 205.028320312 425.575195312 154 320 c 0
 96 200 198.083007812 126.684570312 186 130 c 0
 55.3173828125 165.860351562 303.575195312 108.03125 364 136 c 0
 465.828125 183.133789062 356 54 444 70 c 1
EndSplineSet
EndChar

StartChar: Zcaron
Encoding: 174 381 14
Width: 673
Flags: HW
LayerCount: 2
Fore
SplineSet
306 654 m 1
 329.8984375 625.640625 347.098632812 554.921875 390 572 c 1
 420.334960938 558.23046875 499.033203125 663.6875 496 660 c 1
 574.229492188 709.504882812 562.465820312 750.446289062 448 698 c 0
 397.579101562 674.897460938 388 653 388 653 c 21
 366.057617188 677.416015625 320.252929688 809.3359375 326 709 c 5
 283.977539062 750.233398438 295.198242188 697.28125 306 654 c 1
33 61 m 1
 -65.8076171875 102.40234375 180.404296875 321.473632812 393 389 c 1
 294.049804688 388.874023438 446.681640625 498.123046875 133 401 c 1
 -68.078125 301.18359375 130.530273438 509.79296875 215 552 c 1
 431.874023438 582.93359375 520.481445312 556.490234375 636 535 c 1
 856.025390625 462.002929688 40.177734375 136.342773438 348 128 c 1
 898.752929688 230.611328125 402.366210938 84.4384765625 617 135 c 1
 818.049804688 201.063476562 502.385742188 42.1884765625 517 51 c 1
 390.5703125 19.7529296875 260.604492188 -48.8642578125 33 61 c 1
EndSplineSet
EndChar

StartChar: Scaron
Encoding: 169 352 15
Width: 524
Flags: HW
LayerCount: 2
Fore
SplineSet
203 752 m 1
 234.766150897 744.163997749 245.729719643 680.634025299 279 688 c 5
 322.755578145 659.860407827 324.582622228 735.796082788 333 754 c 5
 355.023759501 776.089673244 333.802396964 779.152547374 303 778 c 1
 295.865426475 723.334908925 282.675782119 717.618575021 267 732 c 1
 276.519768396 755.616447399 268.96764346 774.327421335 223 782 c 1
 217.506237623 772.219932039 159.653379216 752.621976266 203 752 c 1
26 100 m 1
 -79.1435546875 285.19140625 165.405273438 102.491210938 102 202 c 1
 -60.234375 226.916992188 456.577148438 106.685546875 234 120 c 1
 258 186 369.166015625 193.036132812 308 276 c 1
 212.715820312 265.6328125 86.921875 349.795898438 68 432 c 1
 -28.001953125 567.213867188 388.666015625 763.135742188 212 596 c 1
 266.3515625 774.474609375 355.234375 517.424804688 488 556 c 1
 585.493164062 577.642578125 466.446289062 399.436523438 374 460 c 0
 304.134765625 505.770507812 41.71484375 551.411132812 284 398 c 1
 367.94921875 362.315429688 601.796875 221.3828125 398 290 c 1
 586.763671875 315.415039062 475.06640625 75.078125 410 116 c 1
 556.002929688 211.504882812 391.663085938 -22.0537109375 248 4 c 0
 238.345703125 5.7509765625 180 -16 26 100 c 1
EndSplineSet
EndChar

StartChar: scaron
Encoding: 185 353 16
Width: 466
Flags: HW
LayerCount: 2
Fore
SplineSet
260 528 m 1
 212.874023438 497.422851562 205.372070312 562.959960938 182 590 c 1
 161.333007812 616.665039062 166 627.33203125 196 622 c 1
 216.873046875 618.064453125 257.055664062 514.200195312 244 578 c 1
 242.813476562 544.940429688 267.8671875 616.420898438 267 614 c 0
 261.451171875 598.518554688 369.993164062 596.149414062 297 580 c 1
 385.58984375 606.353515625 262.725585938 540.094726562 260 528 c 1
44 96 m 1
 34.8310546875 124.5 -12.8134765625 144.026367188 94 138 c 1
 -53.1845703125 224.103515625 93.1552734375 164.602539062 206 110 c 0
 268 80 416.63671875 232.91796875 220 238 c 0
 130.44921875 240.314453125 44.7929540467 286.897444813 8 368 c 4
 -28.5958177069 448.668008375 134.661915827 574.984619157 338 442 c 4
 401.737046312 400.315497737 432.9765625 371.296875 428 366 c 0
 366 300 219.689453125 350.327148438 212 368 c 0
 210.87109375 370.59375 338 314 338 314 c 1
 405.122070312 290.704101562 467.791015625 256.0546875 462 112 c 1
 467.047851562 78.4140625 458.680664062 59.015625 368 26 c 1
 263.813476562 8 158.685546875 -45.337890625 44 96 c 1
EndSplineSet
EndChar

StartChar: zcaron
Encoding: 190 382 17
Width: 442
Flags: HW
LayerCount: 2
Fore
SplineSet
194 462 m 1
 279.825141898 441.314038603 237.327148438 418.590820312 248 406 c 5
 259.684570312 381.110351562 283.911345047 447.374037845 304 460 c 0
 344.008350037 485.145730993 323.570751572 503.219282503 274 476 c 9
 274 476 248.348489547 440.871942722 250 442 c 0
 270.574354406 456.053226358 242.796705287 499.16110359 214 486 c 0
 211.964734594 485.069812377 138.218971939 475.260352855 194 462 c 1
0 52 m 1
 24.5048828125 102.861328125 50.8447265625 173.340820312 222 266 c 1
 208.587890625 221.607421875 -33.6064453125 266.423828125 64 292 c 0
 83.947265625 297.2265625 -108 290 156 350 c 1
 258.62890625 368.163085938 352.481445312 356.413085938 434 336 c 1
 423.40234375 262.166992188 256 174 182 112 c 1
 294 112 548.040039062 213.2578125 334 68 c 1
 484 166 330.315429688 30.298828125 292 14 c 1
 205.382082375 11.667321286 57.3468751882 -33.5249029981 0 52 c 1
EndSplineSet
EndChar

StartChar: Ccaron
Encoding: 200 268 18
Width: 624
Flags: HW
LayerCount: 2
Fore
SplineSet
256 650 m 1
 260.709960938 600.456054688 323.651367188 574.889648438 358 552 c 1
 424.556245078 499.213853722 457.583908639 613.984345648 438 684 c 1
 483.71484375 727.930664062 392.813476562 710.552734375 384 678 c 1
 420.317382812 652.526367188 364.178710938 589.069335938 362 592 c 0
 360.806640625 593.60546875 292 710 292 710 c 1
 292.403320312 676.701171875 333.186523438 604.475585938 256 650 c 1
570 70 m 1
 566.825195312 61.3525390625 251.584960938 -85.044921875 58 86 c 0
 -141.3515625 262.139648438 240.391601562 698.598632812 316 542 c 0
 390.985351562 386.692382812 319 576.0078125 485 520 c 5
 795.708007812 474.900390625 473 359 537 364 c 5
 683 456 412.182617188 273.776367188 286 374 c 0
 227.748046875 420.267578125 145.91015625 166.387695312 332 176 c 0
 722.842773438 196.188476562 409.1484375 177.568359375 428 180 c 0
 835.848632812 232.609375 367.416992188 69.6416015625 570 70 c 1
EndSplineSet
EndChar

StartChar: Dcroat
Encoding: 208 272 19
Width: 612
Flags: HW
LayerCount: 2
Fore
SplineSet
148 368 m 1
 165.307617188 343.938476562 309.2578125 364.541992188 318 371 c 0
 376.783203125 414.42578125 359.169921875 329.5546875 334 312 c 1
 399.650390625 300.440429688 136.341796875 308.23046875 148 313 c 0
 219.858398438 342.3984375 57.9404296875 343.505859375 148 368 c 1
104 482 m 1
 59.2705078125 483.537109375 -56.669921875 474.735351562 39 547 c 1
 -10.4072265625 568.577148438 269.244140625 687.201171875 350 664 c 1
 528.567382812 630.193359375 577.40625 497.235351562 601 407 c 1
 618.458984375 294.568359375 561.806640625 171.494140625 586 202 c 1
 578.991210938 86.654296875 338.071289062 -4.3876953125 398 20 c 1
 337.264648438 -4.41015625 186.018554688 1.416015625 192 4 c 9
 152 26 l 1
 124.717773438 52.5615234375 -46.1181640625 -44.6328125 88 102 c 1
 161.791992188 131.157226562 289.852539062 101.024414062 359 190 c 5
 208.604117934 83.3643895232 421.583073815 202.532466624 427 261 c 5
 428.09375 255.456054688 446.44140625 328.112304688 447 352 c 1
 484.932617188 427.77734375 305.071289062 535.319335938 222 520 c 1
 104 482 l 1
192 4 m 17
 145.461914062 206.158203125 335.861328125 407.541015625 170 598 c 9
 276 600 l 17
 393.336914062 654.340820312 279.416015625 212.080078125 282 20 c 9
 192 4 l 17
EndSplineSet
EndChar

StartChar: ccaron
Encoding: 232 269 20
Width: 396
Flags: HW
LayerCount: 2
Fore
SplineSet
124 466 m 1
 186 440 l 1
 241.065429688 397.856445312 234 438 306 478 c 1
 367.129882812 441.130859375 390.59375 538.325195312 230 516 c 0
 226.038085938 515.44921875 218.158203125 470.887695312 222 472 c 0
 239.497070312 477.06640625 49.1982421875 543.155273438 90 518 c 0
 113.086914062 503.765625 224.649414062 418.76953125 124 466 c 1
336 14 m 1
 232 2 104.4765625 -30.013671875 20 86 c 1
 -10.1201171875 227.784179688 6.3681640625 338.560546875 178 378 c 1
 22 418 443.690429688 387.694335938 348 358 c 1
 420.419921875 260.719726562 393.171875 229.52734375 278 272 c 1
 275.256835938 317.6484375 121.39453125 277.122070312 154 256 c 0
 189.534179688 232.98046875 124 246 152 148 c 0
 176.513671875 62.2041015625 302.173828125 105.834960938 300 102 c 1
 469.669921875 130.865234375 370.200195312 60.38671875 336 14 c 1
EndSplineSet
EndChar

StartChar: dcroat
Encoding: 240 273 21
Width: 538
Flags: HW
LayerCount: 2
Fore
SplineSet
128 130 m 17
 136.91796875 112.224609375 162.744140625 89.1796875 185 114 c 1
 189.666015625 123.666992188 200.999023438 126 219 121 c 1
 255.291015625 146.833984375 286 151 276 199 c 0
 272.174804688 217.358398438 254.58984375 228.557617188 248 244 c 0
 229.591796875 287.137695312 130.903320312 266.771484375 144 228 c 0
 160.524414062 179.081054688 119.783203125 160.252929688 109 176 c 9
 128 130 l 17
203 528 m 5
 273.541992188 502.038085938 453.9765625 448.959960938 504 467 c 1
 586.586914062 426.658203125 371 350 529 367 c 1
 469 299 280 412.897460938 220 437 c 5
 169.83203125 485.693359375 175.74609375 526.47265625 203 528 c 5
542 33 m 1
 594 31 288 -38 328 26 c 1
 294 -88 291.21875 171.401367188 274 231 c 1
 186.801757812 284.081054688 339 496 270 666 c 1
 293.112304688 649.6796875 408.865234375 563.791992188 470 677 c 0
 564.681640625 852.330078125 316.001953125 133.837890625 542 33 c 1
233 -2 m 0
 274.086914062 5.7509765625 -6.5390625 -16.888671875 -20 202 c 0
 -30.2451171875 368.600585938 237.491210938 350.189453125 165 346 c 0
 -53.806640625 333.356445312 287.165039062 455.65234375 382 240 c 0
 480.0703125 16.9892578125 100.234375 -27.0458984375 233 -2 c 0
EndSplineSet
EndChar
